<?xml version="1.0" encoding="UTF-8"?>
<svg width="224px" height="224px" viewBox="0 0 224 224" version="1.1" xmlns="http://www.w3.org/2000/svg" xmlns:xlink="http://www.w3.org/1999/xlink">
    <!-- Generator: Sketch 49.3 (51167) - http://www.bohemiancoding.com/sketch -->
    <title>Group@2x</title>
    <desc>Created with Sketch.</desc>
    <defs></defs>
    <g id="Page-2" stroke="none" stroke-width="1" fill="none" fill-rule="evenodd">
        <g id="Group" transform="translate(4.000000, 4.000000)">
            <circle id="Oval" stroke="#53CAAA" stroke-width="8" fill="#EBFFF9" cx="108" cy="108" r="108"></circle>
            <g id="open97" fill="#000000" transform="translate(53.000000, 71.000000)">
                <g id="Group" fill="none" transform="translate(-0.705128, -0.701923)">
                    <path d="M24.453141,59.1615865 L86.9578205,59.1615865 C89.4857051,59.1615865 91.6483333,58.2666346 93.4485256,56.4739231 C95.2494231,54.6812115 96.1491667,52.5284135 96.1491667,50.0120192 L96.1491667,9.75181731 C96.1491667,7.23542308 95.2494231,5.08192308 93.4485256,3.28991346 C91.6483333,1.49790385 89.4857051,0.60225 86.9578205,0.60225 L24.453141,0.60225 C21.9252564,0.60225 19.7612179,1.49790385 17.9610256,3.28991346 C16.1608333,5.08192308 15.2610897,7.23542308 15.2610897,9.75181731 L15.2610897,50.0120192 C15.2610897,52.5284135 16.1608333,54.6819135 17.9610256,56.4739231 C19.7612179,58.2659327 21.9252564,59.1615865 24.453141,59.1615865 L24.453141,59.1615865 Z M22.6141667,9.75181731 C22.6141667,9.25625962 22.7960897,8.82668269 23.1599359,8.46519231 C23.5244872,8.10370192 23.9553205,7.92190385 24.453141,7.92190385 L86.9564103,7.92190385 C87.4549359,7.92190385 87.8857692,8.103 88.2496154,8.46519231 C88.6127564,8.82738462 88.7946795,9.25625962 88.7946795,9.75181731 L88.7946795,50.0120192 C88.7946795,50.5075769 88.6127564,50.9371538 88.2496154,51.2986442 C87.8864744,51.6601346 87.4549359,51.8419327 86.9564103,51.8419327 L24.4524359,51.8419327 C23.9546154,51.8419327 23.5237821,51.6608365 23.1592308,51.2986442 C22.7960897,50.93575 22.6141667,50.5075769 22.6141667,50.0120192 L22.6141667,9.75181731 L22.6141667,9.75181731 Z" id="Shape" fill="#53CAAA"></path>
                    <path d="M101.665385,62.8221154 L9.74557692,62.8221154 L0.553525641,62.8221154 L0.553525641,68.3118558 C0.553525641,69.8371346 1.45326923,71.1328846 3.25346154,72.2005096 C5.05435897,73.2681346 7.21769231,73.8015962 9.74557692,73.8015962 L101.665385,73.8015962 C104.192564,73.8015962 106.355897,73.2674327 108.15609,72.2005096 C109.956282,71.1335865 110.856731,69.8371346 110.856731,68.3118558 L110.856731,62.8221154 L101.665385,62.8221154 L101.665385,62.8221154 Z M60.3011538,68.3118558 L51.1091026,68.3118558 C50.4970513,68.3118558 50.1903205,68.0058173 50.1903205,67.3965481 C50.1903205,66.7865769 50.4970513,66.4805385 51.1091026,66.4805385 L60.3011538,66.4805385 C60.9139103,66.4805385 61.2213462,66.7865769 61.2213462,67.3965481 C61.220641,68.0065192 60.9139103,68.3118558 60.3011538,68.3118558 L60.3011538,68.3118558 Z" id="Shape" fill="#53CAAA"></path>
                </g>
            </g>
        </g>
    </g>
</svg>