<?xml version="1.0" encoding="UTF-8"?>
<svg width="224px" height="224px" viewBox="0 0 224 224" version="1.1" xmlns="http://www.w3.org/2000/svg" xmlns:xlink="http://www.w3.org/1999/xlink">
    <!-- Generator: Sketch 49.3 (51167) - http://www.bohemiancoding.com/sketch -->
    <title>Group 2@2x</title>
    <desc>Created with Sketch.</desc>
    <defs></defs>
    <g id="Page-2" stroke="none" stroke-width="1" fill="none" fill-rule="evenodd">
        <g id="Group-2" transform="translate(4.000000, 4.000000)">
            <circle id="Oval" stroke="#404040" stroke-width="8" fill="#FFFFFF" cx="108" cy="108" r="108"></circle>
            <g id="pencil30" fill="#000000" transform="translate(58.000000, 58.000000)">
                <g id="Group" fill="none">
                    <path d="M0.229032258,72.4379032 L0.229032258,99.7709677 L27.5620968,99.7709677 L82.2282258,45.1048387 L54.8951613,17.7717742 L0.229032258,72.4379032 L0.229032258,72.4379032 Z M24.0798387,91.3604839 L24.0798387,91.3604839 L17.0491935,91.3612903 L17.0491935,82.9508065 L8.63951613,82.9508065 L8.63951613,75.9193548 L14.6185484,69.9403226 L30.058871,85.3806452 L24.0798387,91.3604839 L24.0798387,91.3604839 Z M56.9983871,28.9419355 C57.9612903,28.9419355 58.4427419,29.4241935 58.4427419,30.3870968 C58.4427419,30.8258065 58.2903226,31.1975806 57.9830645,31.5048387 L22.3709677,67.1169355 C22.0645161,67.4225806 21.6919355,67.5758065 21.2540323,67.5758065 C20.291129,67.5758065 19.808871,67.0927419 19.808871,66.1306452 C19.808871,65.6919355 19.9620968,65.3201613 20.2685484,65.0129032 L55.8806452,29.4016129 C56.1870968,29.0951613 56.5596774,28.9419355 56.9983871,28.9419355 L56.9983871,28.9419355 Z" id="Shape" fill="#404040"></path>
                    <path d="M97.3395161,18.0991935 L81.8991935,2.725 C80.2354839,1.06129032 78.2419355,0.228225806 75.9201613,0.228225806 C73.5540323,0.228225806 71.583871,1.06129032 70.0072581,2.725 L59.1008065,13.566129 L86.433871,40.8991935 L97.341129,29.9927419 C98.9620968,28.3717742 99.7717742,26.4008065 99.7717742,24.0790323 C99.7709677,21.8016129 98.9612903,19.8080645 97.3395161,18.0991935 L97.3395161,18.0991935 Z" id="Shape" fill="#404040"></path>
                </g>
            </g>
        </g>
    </g>
</svg>